# xmcd
#
# Track frame offsets:
#  150
#  31027
#  66744
#  113263
#  117108
#  152229
#  180681
#  192515
#  240239
#  249552
#  251347
#  266204
#  273814
#  280347
#  299628
#
# Disc length: 4323 seconds
#
# Revision: 0
# Processed by: cddbd v1.4PL0 Copyright (c) Steve Scherf et al.
# Submitted via: AltoMP3_Maker 3.0
#
DISCID=da10e10f
DTITLE=Estradasphere - Buck Fever
DYEAR=1900
DGENRE=
TTITLE0=Buck Fever
TTITLE1=The Dapper Bandits
TTITLE2=The Silent Elk Of Yesterday
TTITLE3=Crag Lake
TTITLE4=Meteorite Showers
TTITLE5=The Bounty Hunter
TTITLE6=Super Buck II
TTITLE7=Millenium Child
TTITLE8=Trampoline Klan
TTITLE9=Burnt Corpse
TTITLE10=Rise N' Shine (Epic Doobie Nightmare #1)
TTITLE11=Bride Of The Buck
TTITLE12=A Very Intense Battle
TTITLE13=Green Hill 
TTITLE14=Feed Your Mama's Meter (Remix 2000)
EXTD=
EXTT0=
EXTT1=
EXTT2=
EXTT3=
EXTT4=
EXTT5=
EXTT6=
EXTT7=
EXTT8=
EXTT9=
EXTT10=
EXTT11=
EXTT12=
EXTT13=
EXTT14=
PLAYORDER=
